<?xml version="1.0" encoding="iso-8859-1"?>
<!-- Uploaded to: SVG Repo, www.svgrepo.com, Generator: SVG Repo Mixer Tools -->
<svg fill="#000000" height="800px" width="800px" version="1.1" id="Layer_1" xmlns="http://www.w3.org/2000/svg" xmlns:xlink="http://www.w3.org/1999/xlink" 
	 viewBox="0 0 512 512" xml:space="preserve">
<g>
	<g>
		<path d="M256,0C114.615,0,0,114.616,0,256s114.615,256,256,256s256-114.616,256-256S397.385,0,256,0z M66.783,256
			c0-104.503,84.716-189.217,189.217-189.217c40.19,0,77.446,12.541,108.089,33.907L100.689,364.089
			C79.323,333.446,66.783,296.19,66.783,256z M256,445.217c-40.19,0-77.446-12.541-108.089-33.907l263.399-263.399
			c21.366,30.643,33.907,67.899,33.907,108.089C445.217,360.501,360.501,445.217,256,445.217z"/>
	</g>
</g>
</svg>